<svg width="94" height="35" viewBox="0 0 94 35" fill="none" xmlns="http://www.w3.org/2000/svg">
	<g clip-path="url(#clip0_576_227)">
		<path d="M19.8831 4.30452H10.0806M10.0806 4.30452L19.8831 26.3325M10.0806 4.30452L0.275391 26.3325H82.7418M88.2495 4.30452H44.0529M44.0529 15.3171H63.6772M5.19041 15.3171H19.8831M88.2467 4.2935C86.7845 4.2935 85.3822 4.87421 84.3483 5.90787C83.3144 6.94154 82.7335 8.34349 82.7335 9.80531C82.7335 11.2671 83.3144 12.6691 84.3483 13.7028C85.3822 14.7364 86.7845 15.3171 88.2467 15.3171C89.7089 15.3171 91.1112 15.8978 92.1451 16.9315C93.1791 17.9652 93.7599 19.3671 93.7599 20.8289C93.7599 22.2908 93.1791 23.6927 92.1451 24.7264C91.1112 25.76 89.7089 26.3407 88.2467 26.3407H82.7335M80.3105 4.31279V26.3325M77.2451 26.3325L70.4584 17.8911C71.3507 17.8911 72.2343 17.7154 73.0587 17.374C73.8831 17.0326 74.6322 16.5322 75.2632 15.9014C75.8942 15.2706 76.3947 14.5217 76.7362 13.6975C77.0776 12.8733 77.2534 11.9899 77.2534 11.0978C77.2534 10.2057 77.0776 9.32235 76.7362 8.49815C76.3947 7.67394 75.8942 6.92506 75.2632 6.29424C74.6322 5.66342 73.8831 5.16303 73.0587 4.82163C72.2343 4.48024 71.3507 4.30452 70.4584 4.30452H63.6772V26.3325L53.8581 4.30452L44.0529 26.3325M44.0667 26.3325V4.30177C44.0667 3.23391 43.6424 2.20978 42.8871 1.45469C42.1318 0.699597 41.1075 0.275391 40.0393 0.275391C38.9712 0.275391 37.9468 0.699597 37.1915 1.45469C36.4362 2.20978 36.0119 3.23391 36.0119 4.30177M36.0119 4.30177V26.3325M36.0119 4.30177C35.9845 3.25178 35.5479 2.25403 34.7954 1.52109C34.0429 0.788163 33.0338 0.378001 31.9832 0.378001C30.9326 0.378001 29.9235 0.788163 29.1709 1.52109C28.4184 2.25403 27.9819 3.25178 27.9544 4.30177M27.9544 4.30177V26.3325M27.9544 4.30177C27.9269 3.25178 27.4904 2.25403 26.7379 1.52109C25.9853 0.788163 24.9762 0.378001 23.9256 0.378001C22.875 0.378001 21.8659 0.788163 21.1134 1.52109C20.3608 2.25403 19.9243 3.25178 19.8969 4.30177V26.3325M82.3338 2.28996C82.3338 2.6884 82.2156 3.0779 81.9942 3.40919C81.7728 3.74049 81.4581 3.9987 81.0899 4.15117C80.7217 4.30365 80.3165 4.34355 79.9256 4.26582C79.5347 4.18808 79.1757 3.99621 78.8939 3.71447C78.6121 3.43273 78.4201 3.07377 78.3424 2.68298C78.2646 2.29219 78.3045 1.88713 78.4571 1.51902C78.6096 1.1509 78.8678 0.83627 79.1992 0.614906C79.5306 0.393543 79.9202 0.275391 80.3187 0.275391C80.8532 0.275391 81.3657 0.487639 81.7436 0.865444C82.1215 1.24325 82.3338 1.75566 82.3338 2.28996Z" stroke="currentColor" stroke-linecap="round" stroke-linejoin="round"></path>
		<path d="M24.242 31.3181C24.0664 31.1438 23.8634 30.9995 23.6411 30.8909C23.3918 30.7767 23.1214 30.7157 22.8472 30.7118C22.3563 30.7305 21.8918 30.9386 21.5512 31.2924C21.2105 31.6461 21.0202 32.1181 21.0202 32.6092C21.0202 33.1003 21.2105 33.5723 21.5512 33.926C21.8918 34.2798 22.3563 34.4879 22.8472 34.5066C23.1457 34.5023 23.4392 34.4287 23.7045 34.2917C23.9008 34.1915 24.0803 34.0613 24.2365 33.9059V34.5397C23.8342 34.8277 23.3529 34.9846 22.8582 34.9889C22.5454 34.9871 22.2361 34.9237 21.9478 34.8024C21.6595 34.6811 21.398 34.5042 21.1781 34.2818C20.734 33.8326 20.4866 33.2255 20.4903 32.594C20.4939 31.9625 20.7484 31.3583 21.1976 30.9144C21.6468 30.4704 22.2541 30.2231 22.8858 30.2267C23.3784 30.2208 23.8584 30.3821 24.2475 30.6842L24.242 31.3181Z" fill="currentColor"></path>
		<path d="M26.2287 32.6079C26.226 32.1336 26.3642 31.6693 26.6257 31.2736C26.8873 30.878 27.2604 30.5689 27.6979 30.3855C28.1354 30.2021 28.6174 30.1527 29.083 30.2436C29.5486 30.3344 29.9767 30.5614 30.3131 30.8958C30.6495 31.2302 30.879 31.6569 30.9726 32.1218C31.0661 32.5867 31.0195 33.069 30.8386 33.5074C30.6577 33.9458 30.3507 34.3206 29.9565 34.5844C29.5623 34.8482 29.0986 34.989 28.6242 34.989C28.3092 34.9949 27.9961 34.9375 27.7037 34.8201C27.4113 34.7027 27.1455 34.5278 26.922 34.3057C26.6986 34.0835 26.522 33.8188 26.4029 33.5271C26.2838 33.2355 26.2246 32.9229 26.2287 32.6079ZM26.7525 32.6079C26.7574 32.9769 26.8713 33.3362 27.0799 33.6407C27.2885 33.9451 27.5825 34.1811 27.9249 34.3189C28.2674 34.4568 28.6429 34.4903 29.0043 34.4153C29.3658 34.3403 29.6969 34.1602 29.9562 33.8975C30.2155 33.6349 30.3913 33.3014 30.4616 32.9391C30.5318 32.5768 30.4933 32.2019 30.351 31.8614C30.2086 31.5209 29.9687 31.2301 29.6615 31.0255C29.3542 30.821 28.9933 30.7119 28.6242 30.7118C28.3766 30.7129 28.1317 30.7629 27.9035 30.8588C27.6752 30.9548 27.4682 31.0949 27.2943 31.2711C27.1204 31.4473 26.983 31.656 26.89 31.8854C26.797 32.1149 26.7503 32.3604 26.7525 32.6079Z" fill="currentColor"></path>
		<path d="M33.4062 34.9061V30.1108L36.9898 33.8699V30.3148H37.5026V35.1238L33.919 31.362V34.9171L33.4062 34.9061Z" fill="currentColor"></path>
	</g>
	<defs>
		<clipPath id="clip0_576_227">
			<rect width="94" height="35" fill="white"></rect>
		</clipPath>
	</defs>
</svg>
